<svg xmlns="http://www.w3.org/2000/svg" width="23" height="35" viewBox="0 0 23 35">
  <path fill="#E12729" d="M924.944695,1819.69565 L916.070096,1819.69565 C915.256592,1819.69565 914.590997,1820.38043 914.590997,1821.21739 L914.590997,1839.47826 C914.590997,1840.31522 915.256592,1841 916.070096,1841 L924.944695,1841 C925.758199,1841 926.423794,1840.31522 926.423794,1839.47826 L926.423794,1821.21739 C926.423794,1820.38043 925.758199,1819.69565 924.944695,1819.69565 Z M920.507395,1828.82609 C918.880386,1828.82609 917.549196,1827.45652 917.549196,1825.78261 C917.549196,1824.1087 918.880386,1822.73913 920.507395,1822.73913 C922.134405,1822.73913 923.465595,1824.1087 923.465595,1825.78261 C923.465595,1827.45652 922.134405,1828.82609 920.507395,1828.82609 Z M913.185852,1815.20652 L915.271383,1817.35217 C916.617363,1815.98261 918.466238,1815.13043 920.507395,1815.13043 C922.548553,1815.13043 924.397428,1815.98261 925.743408,1817.35217 L927.828939,1815.20652 C925.950482,1813.27391 923.362058,1812.08696 920.507395,1812.08696 C917.652733,1812.08696 915.064309,1813.27391 913.185852,1815.20652 Z M920.507395,1806 C916.010932,1806 911.943408,1807.87174 909,1810.9 L911.085531,1813.04565 C913.496463,1810.58043 916.824437,1809.04348 920.507395,1809.04348 C924.190354,1809.04348 927.518328,1810.58043 929.914469,1813.06087 L932,1810.91522 C929.071383,1807.87174 925.003859,1806 920.507395,1806 Z" transform="translate(-909 -1806)"/>
</svg>
