<svg xmlns="http://www.w3.org/2000/svg" width="30" height="27" viewBox="0 0 30 27">
  <path fill="#E12729" d="M545.5,1821.5 L524.5,1821.5 C522.01,1821.5 520,1823.51 520,1826 L520,1835 L526,1835 L526,1841 L544,1841 L544,1835 L550,1835 L550,1826 C550,1823.51 547.99,1821.5 545.5,1821.5 Z M541,1838 L529,1838 L529,1830.5 L541,1830.5 L541,1838 Z M545.5,1827.5 C544.675,1827.5 544,1826.825 544,1826 C544,1825.175 544.675,1824.5 545.5,1824.5 C546.325,1824.5 547,1825.175 547,1826 C547,1826.825 546.325,1827.5 545.5,1827.5 Z M544,1814 L526,1814 L526,1820 L544,1820 L544,1814 Z" transform="translate(-520 -1814)"/>
</svg>
