<svg xmlns="http://www.w3.org/2000/svg" width="33" height="33" viewBox="0 0 33 33">
  <path fill="#E12729" d="M549,1572.5 L534,1572.5 L532.5,1568 L522,1568 C520.35,1568 519,1569.35 519,1571 L519,1593.5 C519,1595.15 520.35,1596.5 522,1596.5 L534,1596.5 L535.5,1601 L549,1601 C550.65,1601 552,1599.65 552,1598 L552,1575.5 C552,1573.85 550.65,1572.5 549,1572.5 Z M528,1590.5 C523.86,1590.5 520.5,1587.14 520.5,1583 C520.5,1578.86 523.86,1575.5 528,1575.5 C530.025,1575.5 531.72,1576.25 533.025,1577.45 L531.045,1579.355 C530.475,1578.815 529.485,1578.185 528,1578.185 C525.39,1578.185 523.275,1580.345 523.275,1583 C523.275,1585.655 525.39,1587.815 528,1587.815 C531.015,1587.815 532.26,1585.655 532.38,1584.2 L528,1584.2 L528,1581.635 L535.02,1581.635 C535.125,1582.1 535.2,1582.55 535.2,1583.165 C535.2,1587.455 532.335,1590.5 528,1590.5 Z M537.255,1582.37 L542.805,1582.37 C542.16,1584.245 541.14,1586.015 539.73,1587.575 C539.265,1587.05 538.83,1586.495 538.44,1585.925 L537.255,1582.37 Z M549.75,1597.25 C549.75,1598.075 549.075,1598.75 548.25,1598.75 L538.5,1598.75 L541.5,1595 L539.94,1590.35 L544.59,1595 L545.97,1593.62 L541.02,1588.745 L541.05,1588.715 C542.745,1586.84 543.945,1584.68 544.65,1582.385 L547.5,1582.385 L547.5,1580.435 L540.705,1580.435 L540.705,1578.5 L538.77,1578.5 L538.77,1580.435 L536.61,1580.435 L534.69,1574.75 L548.25,1574.75 C549.075,1574.75 549.75,1575.425 549.75,1576.25 L549.75,1597.25 Z" transform="translate(-519 -1568)"/>
</svg>
