<svg xmlns="http://www.w3.org/2000/svg" width="24" height="30" viewBox="0 0 24 30">
  <path fill="#E12729" d="M154,1597.385 L154,1580 L145,1571 L133,1571 C131.35,1571 130.015,1572.35 130.015,1574 L130,1598 C130,1599.65 131.335,1601 132.985,1601 L151,1601 C151.675,1601 152.275,1600.775 152.785,1600.4 L146.14,1593.755 C144.94,1594.535 143.53,1595 142,1595 C137.86,1595 134.5,1591.64 134.5,1587.5 C134.5,1583.36 137.86,1580 142,1580 C146.14,1580 149.5,1583.36 149.5,1587.5 C149.5,1589.03 149.035,1590.44 148.255,1591.625 L154,1597.385 Z M137.5,1587.5 C137.5,1589.99 139.51,1592 142,1592 C144.49,1592 146.5,1589.99 146.5,1587.5 C146.5,1585.01 144.49,1583 142,1583 C139.51,1583 137.5,1585.01 137.5,1587.5 Z" transform="translate(-130 -1571)"/>
</svg>
