<svg xmlns="http://www.w3.org/2000/svg" width="27" height="27" viewBox="0 0 27 27">
  <path fill="#E12729" d="M155.5,1832.75 C153.625,1832.75 151.825,1832.45 150.145,1831.895 C149.62,1831.73 149.035,1831.85 148.615,1832.255 L145.315,1835.555 C141.07,1833.395 137.59,1829.93 135.43,1825.685 L138.73,1822.37 C139.15,1821.965 139.27,1821.38 139.105,1820.855 C138.55,1819.175 138.25,1817.375 138.25,1815.5 C138.25,1814.675 137.575,1814 136.75,1814 L131.5,1814 C130.675,1814 130,1814.675 130,1815.5 C130,1829.585 141.415,1841 155.5,1841 C156.325,1841 157,1840.325 157,1839.5 L157,1834.25 C157,1833.425 156.325,1832.75 155.5,1832.75 Z M143.5,1814 L143.5,1829 L148,1824.5 L157,1824.5 L157,1814 L143.5,1814 Z" transform="translate(-130 -1814)"/>
</svg>
